<svg width="145" height="26" viewBox="0 0 145 26" fill="none" xmlns="http://www.w3.org/2000/svg">
<path d="M13.448 19.384L3.872 6.52C3.728 6.328 3.584 6.144 3.44 5.968C3.312 5.776 3.176 5.584 3.032 5.392H3.008L3.08 15.664C3.08 16.064 3.08 16.464 3.08 16.864C3.08 17.264 3.064 17.656 3.032 18.04C3.32 18.024 3.608 18.008 3.896 17.992C4.184 17.976 4.472 17.96 4.76 17.944V19H0.368V18.208C0.864 18.208 1.216 18.104 1.424 17.896C1.648 17.672 1.792 17.416 1.856 17.128C1.92 16.824 1.952 16.552 1.952 16.312L1.976 4.768C1.976 4.496 1.976 4.224 1.976 3.952C1.976 3.68 1.976 3.416 1.976 3.16C1.72 3.176 1.456 3.192 1.184 3.208C0.912 3.224 0.64 3.24 0.368 3.256V2.2H3.224L12.224 14.248C12.432 14.52 12.632 14.792 12.824 15.064C13.032 15.336 13.24 15.608 13.448 15.88H13.472L13.496 4.888C13.496 4.568 13.504 4.264 13.52 3.976C13.536 3.672 13.552 3.4 13.568 3.16C13.28 3.176 12.992 3.192 12.704 3.208C12.416 3.224 12.128 3.24 11.84 3.256V2.2H16.256V2.992C15.664 3.008 15.256 3.144 15.032 3.4C14.808 3.656 14.688 4 14.672 4.432C14.656 4.864 14.648 5.368 14.648 5.944L14.6 19.384H13.448ZM23.9109 19.384C22.8069 19.384 21.8069 19.128 20.9109 18.616C20.0309 18.088 19.3349 17.352 18.8229 16.408C18.3109 15.448 18.0549 14.32 18.0549 13.024C18.0549 11.904 18.3029 10.856 18.7989 9.88C19.3109 8.904 20.0229 8.12 20.9349 7.528C21.8469 6.92 22.9029 6.616 24.1029 6.616C24.7749 6.616 25.3989 6.728 25.9749 6.952C26.5669 7.16 27.0869 7.488 27.5349 7.936C27.9829 8.368 28.3349 8.92 28.5909 9.592C28.8469 10.248 28.9749 11.024 28.9749 11.92L20.5269 12.064C20.5269 13.28 20.6549 14.352 20.9109 15.28C21.1829 16.192 21.6149 16.904 22.2069 17.416C22.7989 17.912 23.5589 18.16 24.4869 18.16C24.9829 18.16 25.4869 18.072 25.9989 17.896C26.5269 17.72 27.0149 17.48 27.4629 17.176C27.9109 16.872 28.2709 16.536 28.5429 16.168L29.1189 16.648C28.6869 17.32 28.1669 17.856 27.5589 18.256C26.9509 18.656 26.3269 18.944 25.6869 19.12C25.0469 19.296 24.4549 19.384 23.9109 19.384ZM20.5989 11.056H26.7189C26.7189 10.48 26.6309 9.928 26.4549 9.4C26.2949 8.856 26.0229 8.416 25.6389 8.08C25.2549 7.728 24.7509 7.552 24.1269 7.552C23.1989 7.552 22.4229 7.832 21.7989 8.392C21.1909 8.936 20.7909 9.824 20.5989 11.056ZM35.1449 19.072L32.0009 9.856C31.8889 9.52 31.7849 9.232 31.6889 8.992C31.6089 8.752 31.5449 8.544 31.4969 8.368C31.4489 8.192 31.4089 8.04 31.3769 7.912L30.1049 7.984V7H35.1929V7.72C34.4729 7.736 34.0729 7.984 33.9929 8.464C33.9289 8.928 34.0249 9.544 34.2809 10.312L35.3849 13.672C35.5129 14.056 35.6409 14.448 35.7689 14.848C35.8969 15.232 36.0249 15.616 36.1529 16C36.2969 15.568 36.4409 15.136 36.5849 14.704C36.7449 14.256 36.8969 13.808 37.0409 13.36L39.1769 7H40.1609L42.5849 13.984C42.7129 14.336 42.8409 14.696 42.9689 15.064C43.0969 15.432 43.2249 15.8 43.3529 16.168C43.4809 15.816 43.6009 15.472 43.7129 15.136C43.8409 14.784 43.9609 14.432 44.0729 14.08L45.6569 9.52C45.7689 9.2 45.8809 8.896 45.9929 8.608C46.1049 8.32 46.2329 8.088 46.3769 7.912L44.9849 7.984V7H49.1609V7.72C48.7449 7.736 48.4009 7.792 48.1289 7.888C47.8729 7.984 47.6569 8.112 47.4809 8.272C47.3049 8.432 47.1609 8.624 47.0489 8.848C46.9369 9.072 46.8329 9.328 46.7369 9.616L43.2809 19.072H42.3209L40.0409 12.52C39.9449 12.232 39.8489 11.952 39.7529 11.68C39.6569 11.392 39.5609 11.112 39.4649 10.84C39.3689 10.552 39.2729 10.272 39.1769 10C39.0809 10.272 38.9849 10.552 38.8889 10.84C38.7929 11.112 38.6969 11.392 38.6009 11.68C38.5049 11.952 38.4089 12.232 38.3129 12.52L36.0569 19.072H35.1449ZM55.1557 19.384C54.3557 19.384 53.6437 19.272 53.0197 19.048C52.3957 18.84 51.8837 18.6 51.4837 18.328L51.5797 19.168H50.5717L50.4277 15.04H51.1717C51.2037 15.696 51.3877 16.288 51.7237 16.816C52.0597 17.328 52.4917 17.728 53.0197 18.016C53.5477 18.304 54.1157 18.448 54.7237 18.448C55.1397 18.448 55.5477 18.384 55.9477 18.256C56.3477 18.112 56.6837 17.904 56.9557 17.632C57.2277 17.344 57.3637 16.984 57.3637 16.552C57.3637 16.104 57.2277 15.736 56.9557 15.448C56.6997 15.144 56.3557 14.88 55.9237 14.656C55.4917 14.432 55.0277 14.224 54.5317 14.032C54.0517 13.84 53.5717 13.64 53.0917 13.432C52.6117 13.224 52.1637 12.976 51.7477 12.688C51.3477 12.4 51.0277 12.048 50.7877 11.632C50.5477 11.216 50.4277 10.704 50.4277 10.096C50.4277 9.76 50.4917 9.392 50.6197 8.992C50.7477 8.592 50.9637 8.216 51.2677 7.864C51.5717 7.496 51.9877 7.2 52.5157 6.976C53.0437 6.736 53.7157 6.616 54.5317 6.616C54.9637 6.616 55.4437 6.688 55.9717 6.832C56.4997 6.976 57.0117 7.248 57.5077 7.648L57.4597 6.736H58.4677V10.936H57.6997C57.6677 10.376 57.5397 9.84 57.3157 9.328C57.0917 8.8 56.7637 8.368 56.3317 8.032C55.8997 7.68 55.3397 7.504 54.6517 7.504C53.9157 7.504 53.3397 7.688 52.9237 8.056C52.5077 8.424 52.2997 8.848 52.2997 9.328C52.2997 9.824 52.4517 10.24 52.7557 10.576C53.0757 10.896 53.4837 11.176 53.9797 11.416C54.4757 11.656 55.0037 11.888 55.5637 12.112C56.1717 12.368 56.7637 12.648 57.3397 12.952C57.9157 13.256 58.3877 13.64 58.7557 14.104C59.1237 14.552 59.3077 15.136 59.3077 15.856C59.3077 16.656 59.0997 17.32 58.6837 17.848C58.2837 18.376 57.7637 18.76 57.1237 19C56.4997 19.256 55.8437 19.384 55.1557 19.384ZM61.1051 18.28C61.6011 18.28 61.9451 18.16 62.1371 17.92C62.3291 17.664 62.4411 17.32 62.4731 16.888C62.5051 16.44 62.5211 15.928 62.5211 15.352V4C62.5211 3.744 62.5211 3.504 62.5211 3.28C62.5371 3.04 62.5611 2.76 62.5931 2.44C62.3051 2.456 62.0171 2.472 61.7291 2.488C61.4571 2.504 61.1771 2.52 60.8891 2.536V1.528C61.5931 1.528 62.1371 1.496 62.5211 1.432C62.9211 1.368 63.2171 1.288 63.4091 1.192C63.6171 1.096 63.7771 0.991999 63.8891 0.879999H64.5851L64.6091 16.456C64.6091 16.776 64.6011 17.064 64.5851 17.32C64.5691 17.56 64.5371 17.816 64.4891 18.088C64.7451 18.072 64.9931 18.064 65.2331 18.064C65.4891 18.048 65.7451 18.032 66.0011 18.016V19H61.1051V18.28ZM73.6921 19.384C72.5881 19.384 71.5881 19.128 70.6921 18.616C69.8121 18.088 69.1161 17.352 68.6041 16.408C68.0921 15.448 67.8361 14.32 67.8361 13.024C67.8361 11.904 68.0841 10.856 68.5801 9.88C69.0921 8.904 69.8041 8.12 70.7161 7.528C71.6281 6.92 72.6841 6.616 73.8841 6.616C74.5561 6.616 75.1801 6.728 75.7561 6.952C76.3481 7.16 76.8681 7.488 77.3161 7.936C77.7641 8.368 78.1161 8.92 78.3721 9.592C78.6281 10.248 78.7561 11.024 78.7561 11.92L70.3081 12.064C70.3081 13.28 70.4361 14.352 70.6921 15.28C70.9641 16.192 71.3961 16.904 71.9881 17.416C72.5801 17.912 73.3401 18.16 74.2681 18.16C74.7641 18.16 75.2681 18.072 75.7801 17.896C76.3081 17.72 76.7961 17.48 77.2441 17.176C77.6921 16.872 78.0521 16.536 78.3241 16.168L78.9001 16.648C78.4681 17.32 77.9481 17.856 77.3401 18.256C76.7321 18.656 76.1081 18.944 75.4681 19.12C74.8281 19.296 74.2361 19.384 73.6921 19.384ZM70.3801 11.056H76.5001C76.5001 10.48 76.4121 9.928 76.2361 9.4C76.0761 8.856 75.8041 8.416 75.4201 8.08C75.0361 7.728 74.5321 7.552 73.9081 7.552C72.9801 7.552 72.2041 7.832 71.5801 8.392C70.9721 8.936 70.5721 9.824 70.3801 11.056ZM85.2399 19.384C84.8719 19.384 84.4959 19.328 84.1119 19.216C83.7279 19.12 83.3679 18.92 83.0319 18.616C82.7119 18.312 82.4559 17.872 82.2639 17.296C82.0719 16.704 81.9759 15.928 81.9759 14.968L82.0239 8.008L80.1759 8.032V7C80.5919 6.984 81.0159 6.832 81.4479 6.544C81.8799 6.24 82.2639 5.832 82.5999 5.32C82.9519 4.808 83.1919 4.248 83.3199 3.64H84.1359V7H88.1679V7.936L84.1359 7.984L84.0879 14.656C84.0879 15.376 84.1439 15.992 84.2559 16.504C84.3839 17 84.5839 17.376 84.8559 17.632C85.1279 17.888 85.4799 18.016 85.9119 18.016C86.3599 18.016 86.7759 17.888 87.1599 17.632C87.5599 17.376 87.9119 17.024 88.2159 16.576L88.8639 17.104C88.5119 17.632 88.1599 18.048 87.8079 18.352C87.4719 18.656 87.1439 18.88 86.8239 19.024C86.5039 19.184 86.2079 19.28 85.9359 19.312C85.6639 19.36 85.4319 19.384 85.2399 19.384ZM94.7555 19.384C94.3875 19.384 94.0115 19.328 93.6275 19.216C93.2435 19.12 92.8835 18.92 92.5475 18.616C92.2275 18.312 91.9715 17.872 91.7795 17.296C91.5875 16.704 91.4915 15.928 91.4915 14.968L91.5395 8.008L89.6915 8.032V7C90.1075 6.984 90.5315 6.832 90.9635 6.544C91.3955 6.24 91.7795 5.832 92.1155 5.32C92.4675 4.808 92.7075 4.248 92.8355 3.64H93.6515V7H97.6835V7.936L93.6515 7.984L93.6035 14.656C93.6035 15.376 93.6595 15.992 93.7715 16.504C93.8995 17 94.0995 17.376 94.3715 17.632C94.6435 17.888 94.9955 18.016 95.4275 18.016C95.8755 18.016 96.2915 17.888 96.6755 17.632C97.0755 17.376 97.4275 17.024 97.7315 16.576L98.3795 17.104C98.0275 17.632 97.6755 18.048 97.3235 18.352C96.9875 18.656 96.6595 18.88 96.3395 19.024C96.0195 19.184 95.7235 19.28 95.4515 19.312C95.1795 19.36 94.9475 19.384 94.7555 19.384ZM105.333 19.384C104.229 19.384 103.229 19.128 102.333 18.616C101.453 18.088 100.757 17.352 100.245 16.408C99.7328 15.448 99.4768 14.32 99.4768 13.024C99.4768 11.904 99.7248 10.856 100.221 9.88C100.733 8.904 101.445 8.12 102.357 7.528C103.269 6.92 104.325 6.616 105.525 6.616C106.197 6.616 106.821 6.728 107.397 6.952C107.989 7.16 108.509 7.488 108.957 7.936C109.405 8.368 109.757 8.92 110.013 9.592C110.269 10.248 110.397 11.024 110.397 11.92L101.949 12.064C101.949 13.28 102.077 14.352 102.333 15.28C102.605 16.192 103.037 16.904 103.629 17.416C104.221 17.912 104.981 18.16 105.909 18.16C106.405 18.16 106.909 18.072 107.421 17.896C107.949 17.72 108.437 17.48 108.885 17.176C109.333 16.872 109.693 16.536 109.965 16.168L110.541 16.648C110.109 17.32 109.589 17.856 108.981 18.256C108.373 18.656 107.749 18.944 107.109 19.12C106.469 19.296 105.877 19.384 105.333 19.384ZM102.021 11.056H108.141C108.141 10.48 108.053 9.928 107.877 9.4C107.717 8.856 107.445 8.416 107.061 8.08C106.677 7.728 106.173 7.552 105.549 7.552C104.621 7.552 103.845 7.832 103.221 8.392C102.613 8.936 102.213 9.824 102.021 11.056ZM112.533 18.28C113.029 18.28 113.373 18.16 113.565 17.92C113.757 17.664 113.869 17.32 113.901 16.888C113.933 16.44 113.949 15.928 113.949 15.352V9.88C113.949 9.624 113.949 9.368 113.949 9.112C113.965 8.856 113.997 8.592 114.045 8.32C113.757 8.336 113.469 8.352 113.181 8.368C112.909 8.368 112.629 8.376 112.341 8.392V7.408H113.085C113.773 7.408 114.245 7.344 114.501 7.216C114.773 7.072 114.997 6.92 115.173 6.76H115.869C115.901 7.016 115.925 7.336 115.941 7.72C115.957 8.088 115.973 8.56 115.989 9.136C116.229 8.736 116.557 8.344 116.973 7.96C117.389 7.576 117.853 7.256 118.365 7C118.893 6.744 119.445 6.616 120.021 6.616C120.469 6.616 120.861 6.736 121.197 6.976C121.533 7.216 121.701 7.6 121.701 8.128C121.701 8.256 121.661 8.416 121.581 8.608C121.501 8.784 121.373 8.944 121.197 9.088C121.021 9.216 120.789 9.28 120.501 9.28C120.149 9.264 119.869 9.128 119.661 8.872C119.453 8.6 119.373 8.288 119.421 7.936C119.021 7.92 118.605 8.024 118.173 8.248C117.757 8.472 117.365 8.784 116.997 9.184C116.629 9.568 116.301 10.024 116.013 10.552L116.037 16.456C116.037 16.776 116.029 17.064 116.013 17.32C116.013 17.56 115.989 17.816 115.941 18.088C116.197 18.072 116.445 18.064 116.685 18.064C116.941 18.048 117.197 18.032 117.453 18.016V19H112.533V18.28ZM122.582 18.28C123.078 18.28 123.422 18.16 123.614 17.92C123.806 17.664 123.918 17.32 123.95 16.888C123.982 16.44 123.998 15.928 123.998 15.352V4C123.998 3.744 123.998 3.504 123.998 3.28C124.014 3.04 124.038 2.76 124.07 2.44C123.782 2.456 123.494 2.472 123.206 2.488C122.934 2.504 122.654 2.52 122.366 2.536V1.528C123.07 1.528 123.614 1.496 123.998 1.432C124.398 1.368 124.694 1.288 124.886 1.192C125.094 1.096 125.254 0.991999 125.366 0.879999H126.062L126.086 16.456C126.086 16.776 126.078 17.064 126.062 17.32C126.046 17.56 126.014 17.816 125.966 18.088C126.222 18.072 126.47 18.064 126.71 18.064C126.966 18.048 127.222 18.032 127.478 18.016V19H122.582V18.28ZM131.092 25.504C130.596 25.504 130.172 25.384 129.82 25.144C129.468 24.904 129.292 24.536 129.292 24.04C129.292 23.752 129.388 23.488 129.58 23.248C129.772 23.008 130.02 22.888 130.324 22.888C130.708 22.872 130.964 22.992 131.092 23.248C131.236 23.504 131.308 23.728 131.308 23.92C131.308 23.968 131.308 24.016 131.308 24.064C131.308 24.128 131.3 24.192 131.284 24.256C131.332 24.288 131.419 24.304 131.548 24.304C131.74 24.304 131.948 24.224 132.172 24.064C132.396 23.904 132.596 23.672 132.772 23.368C132.98 23.016 133.22 22.488 133.492 21.784C133.78 21.08 134.1 20.24 134.452 19.264L130.708 11.248C130.292 10.352 129.988 9.64 129.796 9.112C129.62 8.584 129.5 8.192 129.436 7.936L128.284 7.984V7H133.252V7.72H133.156C132.484 7.768 132.116 8.024 132.052 8.488C131.988 8.936 132.172 9.624 132.604 10.552L135.412 16.576C135.78 15.552 136.132 14.544 136.468 13.552C136.804 12.544 137.14 11.544 137.476 10.552C137.604 10.2 137.732 9.84 137.86 9.472C138.004 9.088 138.14 8.752 138.268 8.464C138.412 8.16 138.54 7.968 138.652 7.888L136.996 7.984V7H140.764V7.72C140.172 7.944 139.724 8.32 139.42 8.848C139.132 9.36 138.836 10.024 138.532 10.84L135.532 19.216C135.052 20.56 134.612 21.696 134.212 22.624C133.812 23.568 133.372 24.28 132.892 24.76C132.412 25.256 131.812 25.504 131.092 25.504Z" fill="#363737"/>
<path d="M142.905 19.384C142.537 19.384 142.209 19.24 141.921 18.952C141.649 18.648 141.513 18.28 141.513 17.848C141.513 17.416 141.657 17.048 141.945 16.744C142.233 16.44 142.561 16.288 142.929 16.288C143.329 16.288 143.657 16.44 143.913 16.744C144.185 17.048 144.321 17.416 144.321 17.848C144.321 18.28 144.177 18.648 143.889 18.952C143.601 19.24 143.273 19.384 142.905 19.384Z" fill="#F25A38"/>
</svg>
